<?xml version="1.0" encoding="UTF-8"?>
<svg version="1.1" xmlns="http://www.w3.org/2000/svg" width="79" height="79">
<path d="M0 0 C4.00546097 5.11460601 3.0310633 12.06683068 2.9609375 18.22265625 C2.98865234 19.52009766 3.01636719 20.81753906 3.04492188 22.15429688 C3.01775986 32.76377826 3.01775986 32.76377826 -0.56640625 37.10546875 C-4.89129993 41.33458577 -9.83367414 41.86551215 -15.6640625 42.09765625 C-21.13261931 41.95637135 -26.17883459 41.1617681 -30.296875 37.3203125 C-35.52141278 31.21506692 -34.97390083 26.27636317 -35.0390625 18.53515625 C-35.06806641 17.40207031 -35.09707031 16.26898438 -35.12695312 15.1015625 C-35.17578141 8.69378973 -35.15603581 4.5904152 -30.7265625 -0.21484375 C-21.67931983 -7.33714117 -8.98361145 -7.29757549 0 0 Z M-21.4609375 7.3359375 C-23.22034828 10.74072318 -23.08785918 13.47150793 -23.0390625 17.28515625 C-23.03519531 18.59484375 -23.03132813 19.90453125 -23.02734375 21.25390625 C-22.75694865 24.42841496 -22.51751539 26.20314643 -20.7265625 28.78515625 C-17.61735641 30.3397593 -14.09573222 30.51236318 -10.7265625 29.78515625 C-8.02883313 27.37299733 -7.73626048 25.87942476 -7.36328125 22.25390625 C-7.38003906 20.94421875 -7.39679688 19.63453125 -7.4140625 18.28515625 C-7.41792969 16.97546875 -7.42179687 15.66578125 -7.42578125 14.31640625 C-7.69617635 11.14189754 -7.93560961 9.36716607 -9.7265625 6.78515625 C-13.51437806 4.89124847 -18.23910245 4.45515255 -21.4609375 7.3359375 Z " fill="#FCF4F4" transform="translate(74.7265625,20.21484375)"/>
<path d="M0 0 C3.66028544 2.72574447 5.22943657 4.7460112 5.9375 9.1875 C5.958125 10.445625 5.97875 11.70375 6 13 C4 15 4 15 1.8359375 15.1953125 C1.02382813 15.17210938 0.21171875 15.14890625 -0.625 15.125 C-1.44226563 15.10695313 -2.25953125 15.08890625 -3.1015625 15.0703125 C-3.72804688 15.04710938 -4.35453125 15.02390625 -5 15 C-5.28875 14.195625 -5.5775 13.39125 -5.875 12.5625 C-6.73262568 9.8673532 -6.73262568 9.8673532 -9 9 C-10.54023996 8.93049459 -12.08334988 8.91547643 -13.625 8.9375 C-14.44226562 8.94652344 -15.25953125 8.95554687 -16.1015625 8.96484375 C-16.72804688 8.97644531 -17.35453125 8.98804688 -18 9 C-18.08710289 12.10398978 -18.14042309 15.20766548 -18.1875 18.3125 C-18.21263672 19.19357422 -18.23777344 20.07464844 -18.26367188 20.98242188 C-18.27333984 21.82998047 -18.28300781 22.67753906 -18.29296875 23.55078125 C-18.3086792 24.33106689 -18.32438965 25.11135254 -18.34057617 25.9152832 C-17.91276296 28.53399076 -17.07645761 29.39981725 -15 31 C-12.94636394 31.3606631 -12.94636394 31.3606631 -10.8125 31.1875 C-9.554375 31.125625 -8.29625 31.06375 -7 31 C-6.690625 30.195625 -6.38125 29.39125 -6.0625 28.5625 C-5 26 -5 26 -4 25 C-2.1875 24.8671875 -2.1875 24.8671875 0 24.875 C0.721875 24.87242188 1.44375 24.86984375 2.1875 24.8671875 C4 25 4 25 5 26 C5.66551103 29.92567267 5.80026736 33.52407439 3.87109375 37.08203125 C0.75021019 40.95257875 -1.99430457 43.13362964 -7 44 C-12.94877018 44.44393807 -18.41429673 44.29999546 -24 42 C-26.875 39.4375 -26.875 39.4375 -29 37 C-29.33 36.67 -29.66 36.34 -30 36 C-30.3391475 31.67550075 -30.39963941 27.34537425 -30.45996094 23.00952148 C-30.48649663 21.55345639 -30.52734547 20.09757671 -30.58300781 18.64233398 C-31.03875995 6.58549359 -31.03875995 6.58549359 -28.50732422 2.72167969 C-20.39911904 -4.36208454 -9.34746142 -5.05048024 0 0 Z " fill="#FBF1F1" transform="translate(30,18)"/>
<path d="M0 0 C0 0.33 0 0.66 0 1 C-1.32064453 1.23783203 -1.32064453 1.23783203 -2.66796875 1.48046875 C-11.60759535 3.11286228 -11.60759535 3.11286228 -18 9 C-19.97579469 12.95158938 -19.31624155 17.84204543 -19.375 22.1875 C-19.41238281 23.21681641 -19.44976562 24.24613281 -19.48828125 25.30664062 C-19.56822745 32.23975243 -18.80401212 35.89530007 -14 41 C-7.71465055 43.72760448 -1.69949704 43.85484073 4.75 41.8125 C8.1691246 39.90568051 9.79317003 38.18764328 12 35 C12.66 34.34 13.32 33.68 14 33 C13.75737506 37.12462395 13.39437803 39.47802908 10.875 42.8125 C4.93689397 47.33062415 -1.78343465 47.71260755 -9 47 C-15.23927038 45.70649273 -18.37540475 43.16230232 -22 38 C-24.09640363 33.80719275 -23.27372271 28.35674244 -23.3125 23.75 C-23.34150391 22.61691406 -23.37050781 21.48382813 -23.40039062 20.31640625 C-23.44921891 13.90863348 -23.42947331 9.80525895 -19 5 C-12.70283614 0.04265824 -7.69329353 -0.13039481 0 0 Z " fill="#FC0707" transform="translate(63,15)"/>
<path d="M0 0 C0 0.33 0 0.66 0 1 C-0.66386719 1.10957031 -1.32773437 1.21914063 -2.01171875 1.33203125 C-8.17041875 2.43790001 -12.3757346 3.64838555 -17.10546875 7.88671875 C-19.98411881 12.61720143 -19.54252446 17.07260692 -19.4375 22.5 C-19.44813477 24.04880859 -19.44813477 24.04880859 -19.45898438 25.62890625 C-19.47088671 32.84664474 -19.47088671 32.84664474 -16 39 C-10.64949434 42.84138868 -5.53370998 43.68262642 1 43 C4.47273245 42.06291347 7.2569282 40.71830274 9.875 38.1875 C11.26504953 35.48462592 11.6585519 33.00474325 12 30 C12.33 30 12.66 30 13 30 C13.52547667 34.99202833 13.59933546 37.88656421 10.375 41.875 C6.08377647 46.25603984 2.0581433 47.07765927 -3.9375 47.25 C-9.86809985 47.09861832 -14.3216578 46.4959137 -18.875 42.4375 C-19.57625 41.633125 -20.2775 40.82875 -21 40 C-21.33 39.67 -21.66 39.34 -22 39 C-22.3391475 34.67550075 -22.39963941 30.34537425 -22.45996094 26.00952148 C-22.48649663 24.55345639 -22.52734547 23.09757671 -22.58300781 21.64233398 C-23.03875995 9.58549359 -23.03875995 9.58549359 -20.50732422 5.72167969 C-14.34704601 0.33972924 -7.88903284 -0.31556131 0 0 Z " fill="#FC0707" transform="translate(22,15)"/>
<path d="M0 0 C0.86367188 -0.04898437 1.72734375 -0.09796875 2.6171875 -0.1484375 C5.125 0.375 5.125 0.375 7.421875 2.359375 C9.69196995 6.37890091 9.64688688 9.4696993 9.5 14 C9.49871094 14.763125 9.49742188 15.52625 9.49609375 16.3125 C9.43537275 20.15816331 9.29983583 22.11274626 7.125 25.375 C6.465 25.045 5.805 24.715 5.125 24.375 C5.455 23.715 5.785 23.055 6.125 22.375 C6.22333936 19.90494663 6.26403081 17.46942339 6.25 15 C6.25386719 14.32710937 6.25773437 13.65421875 6.26171875 12.9609375 C6.25494361 9.51916504 5.96717839 6.74371356 5.125 3.375 C1.165 3.375 -2.795 3.375 -6.875 3.375 C-6.875 2.715 -6.875 2.055 -6.875 1.375 C-4.45506642 0.16503321 -2.7003367 0.10416729 0 0 Z " fill="#F42F2F" transform="translate(59.875,23.625)"/>
<path d="M0 0 C2.97 0 5.94 0 9 0 C9 0.66 9 1.32 9 2 C9.99 2.33 10.98 2.66 12 3 C12.33 3.99 12.66 4.98 13 6 C15.64 6 18.28 6 21 6 C21.33 5.01 21.66 4.02 22 3 C21.125 7.875 21.125 7.875 20 9 C18.48071962 9.07179964 16.95832518 9.08392007 15.4375 9.0625 C14.61121094 9.05347656 13.78492188 9.04445313 12.93359375 9.03515625 C12.29550781 9.02355469 11.65742188 9.01195312 11 9 C10.855625 8.21625 10.71125 7.4325 10.5625 6.625 C9.28463143 3.84843237 9.28463143 3.84843237 6.86328125 3.22265625 C4.58025309 2.73164391 2.31304073 2.31887599 0 2 C0 1.34 0 0.68 0 0 Z " fill="#FB1414" transform="translate(14,24)"/>
<path d="M0 0 C0.91007812 0.00902344 1.82015625 0.01804687 2.7578125 0.02734375 C3.45648438 0.03894531 4.15515625 0.05054687 4.875 0.0625 C4.875 1.0525 4.875 2.0425 4.875 3.0625 C0.915 3.0625 -3.045 3.0625 -7.125 3.0625 C-7.125 2.4025 -7.125 1.7425 -7.125 1.0625 C-4.60024538 -0.19987731 -2.81299534 -0.03606404 0 0 Z " fill="#F33838" transform="translate(60.125,23.9375)"/>
<path d="M0 0 C2.97 0 5.94 0 9 0 C9 0.66 9 1.32 9 2 C9.66 2 10.32 2 11 2 C10.67 2.99 10.34 3.98 10 5 C9.01 4.34 8.02 3.68 7 3 C4.67612053 2.60612212 2.34206251 2.26513915 0 2 C0 1.34 0 0.68 0 0 Z " fill="#F62626" transform="translate(14,24)"/>
</svg>
